<svg width="767" height="103" viewBox="0 0 767 103" fill="none" xmlns="http://www.w3.org/2000/svg">
<path d="M270.017 3C270.017 3 294.386 33.6944 322.92 34.5714C351.455 35.4484 375.188 3 414.423 3C453.659 3 462.604 33.6944 491.139 34.5714C519.674 35.4484 565.849 6.38452 605.085 6.38452C644.32 6.38452 672.627 34.5714 697.595 34.5714C722.563 34.5714 764.157 3.00026 764.157 3.00026" stroke="#33C8CE" stroke-width="4.11131" stroke-linecap="round"/>
<ellipse cx="37.6423" cy="29.9202" rx="12.0739" ry="11.5534" fill="#FFA37F"/>
<ellipse cx="6.39208" cy="65.1302" rx="6.39208" ry="6.05176" fill="#FFA37F"/>
<ellipse cx="653.994" cy="61.738" rx="6.39208" ry="6.05176" fill="#FFA37F"/>
<ellipse cx="609.83" cy="88.6959" rx="14.9149" ry="14.3042" fill="#FFA37F"/>
<path d="M57.0767 57.8815C57.0767 57.8815 65.4158 78.8065 70.5476 79.4604C75.6794 80.1143 87.8673 65.0744 94.9235 65.0744C101.98 65.0744 105.187 85.3456 110.319 85.9995C115.451 86.6534 121.865 70.3057 128.922 70.3057C135.978 70.3057 137.902 88.6151 142.392 88.6151C146.883 88.6151 155.863 65.0744 155.863 65.0744" stroke="#33C8CE" stroke-width="6" stroke-linecap="round"/>
</svg>
