<svg width="190" height="223" viewBox="0 0 190 223" fill="none" xmlns="http://www.w3.org/2000/svg">
<path d="M181.023 24.7047C187.514 23.2047 199.08 108.705 173.023 136.705C128.504 184.548 -1.97726 136.705 0.0227396 127.705C2.02274 118.705 67.0229 120.205 67.0229 120.205C40.5229 114.371 12.5228 97.7047 12.5228 92.2047C12.5228 79.7047 69.5229 92.3714 85.523 97.7047C65.3563 72.2047 28.4229 20.5047 42.0229 17.7047C55.6229 14.9047 91.5029 52.2047 115.523 68.2047C109.003 38.7047 82.9229 3.80474 102.523 0.204744C122.123 -3.39526 148.69 41.3714 159.523 64.2047C168.503 38.2047 174.532 26.2047 181.023 24.7047Z" fill="#33C8CE"/>
<path d="M144.018 116C130.865 124.272 107.319 146.439 118.362 168.931C132.166 197.046 145.158 171.567 139.572 156.277C133.985 140.987 118.697 134.408 99.2959 145.747C79.8945 157.087 68.2185 175.251 75.7773 193.254C83.336 211.257 103.839 209.583 96.576 181.175C89.3127 152.766 64.1109 162.756 54.7399 164.315C45.3688 165.875 20.131 178.693 29.9083 200.889C39.6856 223.085 58.8383 222.431 55.0623 196.702C52.0415 176.119 22.0215 179.899 7.38906 184.363" stroke="black" stroke-width="4"/>
</svg>
