<svg width="241" height="260" viewBox="0 0 241 260" fill="none" xmlns="http://www.w3.org/2000/svg">
<path d="M21.841 73.9439C39.041 64.7439 78.341 77.7773 95.841 85.4439C88.5076 60.1106 67.8408 17.9439 95.841 1.44394C111.976 -8.0639 128.508 31.7773 133.841 50.9439C143.507 31.9439 167.541 -3.95606 186.341 4.44394C205.141 12.8439 185.507 48.9439 173.341 65.9439C192.841 59.4439 233.241 51.9439 238.841 73.9439C244.441 95.9439 203.841 108.111 182.841 111.444C205.841 117.444 249.241 135.044 238.841 157.444C228.441 179.844 183.841 158.777 162.841 145.444C180.841 167.444 203.841 217.015 192.341 221.944C172.741 230.344 145.174 197.111 133.841 179.444C140.174 206.111 148.441 259.944 118.841 259.944C89.2408 259.944 84.5075 185.444 87.3408 148.444C70.3408 162.944 38.3408 197.444 21.841 179.444C8.90496 165.332 16.3408 140.444 45.3408 119.944C11.8408 119.944 3.341 110.944 0.840996 104.444C-1.659 97.9439 0.340996 85.4439 21.841 73.9439Z" fill="#CBBFE7"/>
<ellipse cx="108.164" cy="113.68" rx="5.08275" ry="6" transform="rotate(-39.2469 108.164 113.68)" fill="#020100"/>
<ellipse cx="121.566" cy="114.185" rx="4.40315" ry="5.19776" transform="rotate(-39.2469 121.566 114.185)" fill="#020100"/>
<ellipse cx="130.766" cy="102.424" rx="5.0377" ry="5.54354" transform="rotate(-39.2469 130.766 102.424)" fill="#020100"/>
<ellipse cx="140.197" cy="118.875" rx="5.02088" ry="5.54354" transform="rotate(-39.2469 140.197 118.875)" fill="#020100"/>
<ellipse cx="119.736" cy="130.414" rx="5.02088" ry="5.54354" transform="rotate(-39.2469 119.736 130.414)" fill="#020100"/>
<ellipse cx="116.736" cy="98.4135" rx="5.02088" ry="5.54354" transform="rotate(-39.2469 116.736 98.4135)" fill="#020100"/>
</svg>
