<svg width="616" height="403" viewBox="0 0 616 403" fill="none" xmlns="http://www.w3.org/2000/svg">
<path d="M164.971 201.5L241.063 122.5H376.918L451.071 201.5L376.918 280.5H241.063L164.971 201.5Z" stroke="#33C8CE" stroke-width="5"/>
<path d="M430.83 18.5L580.657 198H456V203H580.657L432.483 380.52L379.717 279.344L375.283 281.656L427.877 382.5H188.162L36.8765 203H164.5V198H36.8765L186.448 20.5341L237.758 124.605L242.242 122.395L191.02 18.5H430.83Z" stroke="#33C8CE" stroke-width="5"/>
<circle cx="32" cy="203" r="29" fill="#33C8CE"/>
<circle cx="32" cy="203" r="30.5" stroke="#33C8CE" stroke-opacity="0.4" stroke-width="3"/>
<path d="M37.8771 211.98H24.4823L21.874 221H15.4619L27.3895 183.505H35.2145L47.1693 221H40.4855L37.8771 211.98ZM25.7865 207.116H36.5458L31.1933 188.396L25.7865 207.116Z" fill="white"/>
<circle cx="584" cy="203" r="29" fill="#33C8CE"/>
<circle cx="584" cy="203" r="30.5" stroke="#33C8CE" stroke-opacity="0.4" stroke-width="3"/>
<path d="M596.697 194.346C596.697 196.194 596.316 197.806 595.556 199.182C594.813 200.541 593.79 201.673 592.485 202.579C591.199 203.484 589.759 204.182 588.165 204.671L598.789 221L591.453 221L582.025 205.567L577.922 205.567L577.922 221L571.619 221L571.619 183.505L582.079 183.505C586.897 183.505 590.538 184.411 593.002 186.222C595.465 188.016 596.697 190.724 596.697 194.346ZM590.094 194.346C590.094 192.173 589.461 190.606 588.193 189.646C586.943 188.668 585.023 188.179 582.433 188.179L577.922 188.179L577.922 200.949L582.568 200.949C584.977 200.949 586.834 200.441 588.138 199.427C589.442 198.395 590.095 196.701 590.094 194.346Z" fill="white"/>
<circle cx="240" cy="279" r="29" fill="#33C8CE"/>
<circle cx="240" cy="279" r="30.5" stroke="#33C8CE" stroke-opacity="0.4" stroke-width="3"/>
<path d="M245.877 287.98H232.482L229.874 297H223.462L235.39 259.505H243.214L255.169 297H248.485L245.877 287.98ZM233.786 283.116H244.546L239.193 264.396L233.786 283.116Z" fill="white"/>
<circle cx="376" cy="279" r="29" fill="#33C8CE"/>
<circle cx="376" cy="279" r="30.5" stroke="#33C8CE" stroke-opacity="0.4" stroke-width="3"/>
<path d="M382.393 286.159C382.393 284.475 382.067 283.17 381.415 282.247C380.763 281.323 379.885 280.68 378.78 280.318C377.675 279.937 376.434 279.747 375.057 279.747L369.705 279.747L369.705 292.109L374.786 292.109C375.691 292.109 376.588 292.037 377.476 291.892C378.381 291.729 379.205 291.439 379.948 291.023C380.691 290.588 381.279 289.981 381.714 289.202C382.167 288.423 382.393 287.409 382.393 286.159ZM380.953 269.504C380.953 267.62 380.365 266.271 379.187 265.456C378.01 264.641 376.353 264.233 374.215 264.233L369.705 264.233L369.705 275.074L374.596 275.074C376.697 275.074 378.282 274.639 379.35 273.77C380.419 272.882 380.953 271.46 380.953 269.504ZM388.969 286.186C388.969 288.269 388.561 290.017 387.746 291.43C386.931 292.825 385.826 293.93 384.431 294.745C383.055 295.56 381.497 296.14 379.758 296.484C378.019 296.828 376.226 297 374.378 297L363.402 297L363.402 259.505L373.645 259.505C375.402 259.505 377.095 259.659 378.725 259.967C380.356 260.257 381.814 260.764 383.1 261.489C384.404 262.213 385.436 263.191 386.197 264.423C386.958 265.637 387.338 267.158 387.338 268.988C387.338 270.564 387.012 271.904 386.36 273.009C385.708 274.114 384.848 275.01 383.779 275.699C382.728 276.369 381.605 276.849 380.41 277.139C381.768 277.356 383.1 277.782 384.404 278.416C385.726 279.032 386.813 279.964 387.664 281.214C388.534 282.464 388.969 284.121 388.969 286.186Z" fill="white"/>
<circle cx="187" cy="32" r="30.5" fill="#188B8F" stroke="#33C8CE" stroke-width="3"/>
<path d="M192.877 40.9796H179.482L176.874 50H170.462L182.39 12.5054H190.214L202.169 50H195.485L192.877 40.9796ZM180.786 36.1161H191.546L186.193 17.396L180.786 36.1161Z" fill="white"/>
<circle cx="428" cy="32" r="29" fill="#33C8CE"/>
<circle cx="428" cy="32" r="30.5" stroke="#33C8CE" stroke-opacity="0.4" stroke-width="3"/>
<path d="M441.697 23.3462C441.697 25.1938 441.316 26.8059 440.556 28.1825C439.813 29.541 438.79 30.6731 437.485 31.5787C436.199 32.4844 434.759 33.1818 433.165 33.6708L443.789 50L436.453 50L427.025 34.5674L422.922 34.5674L422.922 50L416.619 50L416.619 12.5054L427.079 12.5054C431.897 12.5054 435.538 13.4111 438.002 15.2224C440.465 17.0156 441.697 19.7236 441.697 23.3462ZM435.094 23.3462C435.094 21.1726 434.461 19.6058 433.193 18.6458C431.943 17.6677 430.023 17.1786 427.433 17.1786L422.922 17.1786L422.922 29.9485L427.568 29.9485C429.977 29.9485 431.834 29.4414 433.138 28.427C434.442 27.3946 435.095 25.701 435.094 23.3462Z" fill="white"/>
<circle cx="163" cy="203" r="29" fill="#33C8CE"/>
<circle cx="163" cy="203" r="30.5" stroke="#33C8CE" stroke-opacity="0.4" stroke-width="3"/>
<path d="M152.494 221V183.505H158.797V215.729H175.588L174.909 221H152.494Z" fill="white"/>
<circle cx="453" cy="203" r="29" fill="#33C8CE"/>
<circle cx="453" cy="203" r="30.5" stroke="#33C8CE" stroke-opacity="0.4" stroke-width="3"/>
<path d="M463.578 183.505L463.578 188.314L455.481 188.314L455.481 216.164L463.578 216.164L463.578 221L441.026 221L441.026 216.164L449.123 216.164L449.123 188.314L441.026 188.314L441.026 183.505L463.578 183.505Z" fill="white"/>
<circle cx="240" cy="124" r="29" fill="#33C8CE"/>
<circle cx="240" cy="124" r="30.5" stroke="#33C8CE" stroke-opacity="0.4" stroke-width="3"/>
<path d="M252.697 115.346C252.697 117.194 252.316 118.806 251.556 120.182C250.813 121.541 249.79 122.673 248.485 123.579C247.199 124.484 245.759 125.182 244.165 125.671L254.789 142H247.453L238.025 126.567H233.922V142H227.619V104.505H238.079C242.897 104.505 246.538 105.411 249.002 107.222C251.465 109.016 252.697 111.724 252.697 115.346ZM246.095 115.346C246.095 113.173 245.461 111.606 244.193 110.646C242.943 109.668 241.023 109.179 238.433 109.179H233.922V121.949H238.568C240.977 121.949 242.834 121.441 244.138 120.427C245.442 119.395 246.095 117.701 246.095 115.346Z" fill="white"/>
<circle cx="376" cy="124" r="29" fill="#33C8CE"/>
<circle cx="376" cy="124" r="30.5" stroke="#33C8CE" stroke-opacity="0.4" stroke-width="3"/>
<path d="M388.697 115.346C388.697 117.194 388.316 118.806 387.556 120.182C386.813 121.541 385.79 122.673 384.485 123.579C383.199 124.484 381.759 125.182 380.165 125.671L390.789 142L383.453 142L374.025 126.567L369.922 126.567L369.922 142L363.619 142L363.619 104.505L374.079 104.505C378.897 104.505 382.538 105.411 385.002 107.222C387.465 109.016 388.697 111.724 388.697 115.346ZM382.094 115.346C382.094 113.173 381.461 111.606 380.193 110.646C378.943 109.668 377.023 109.179 374.433 109.179L369.922 109.179L369.922 121.949L374.568 121.949C376.977 121.949 378.834 121.441 380.138 120.427C381.442 119.395 382.095 117.701 382.094 115.346Z" fill="white"/>
<circle cx="187" cy="371" r="29" fill="#33C8CE"/>
<circle cx="187" cy="371" r="30.5" stroke="#33C8CE" stroke-opacity="0.4" stroke-width="3"/>
<path d="M193.393 378.159C193.393 376.475 193.067 375.17 192.415 374.247C191.763 373.323 190.885 372.68 189.78 372.318C188.675 371.937 187.434 371.747 186.057 371.747H180.705V384.109H185.786C186.691 384.109 187.588 384.037 188.476 383.892C189.381 383.729 190.205 383.439 190.948 383.023C191.691 382.588 192.279 381.981 192.714 381.202C193.167 380.423 193.393 379.409 193.393 378.159ZM191.953 361.504C191.953 359.62 191.365 358.271 190.187 357.456C189.01 356.641 187.353 356.233 185.215 356.233H180.705V367.074H185.596C187.697 367.074 189.282 366.639 190.35 365.77C191.419 364.882 191.953 363.46 191.953 361.504ZM199.969 378.186C199.969 380.269 199.561 382.017 198.746 383.43C197.931 384.825 196.826 385.93 195.431 386.745C194.055 387.56 192.497 388.14 190.758 388.484C189.019 388.828 187.226 389 185.378 389H174.402V351.505H184.645C186.402 351.505 188.095 351.659 189.725 351.967C191.356 352.257 192.814 352.764 194.1 353.489C195.404 354.213 196.436 355.191 197.197 356.423C197.958 357.637 198.338 359.158 198.338 360.988C198.338 362.564 198.012 363.904 197.36 365.009C196.708 366.114 195.848 367.01 194.779 367.699C193.728 368.369 192.605 368.849 191.41 369.139C192.768 369.356 194.1 369.782 195.404 370.416C196.726 371.032 197.813 371.964 198.664 373.214C199.534 374.464 199.969 376.121 199.969 378.186Z" fill="white"/>
<circle cx="429" cy="371" r="29" fill="#33C8CE"/>
<circle cx="429" cy="371" r="30.5" stroke="#33C8CE" stroke-opacity="0.4" stroke-width="3"/>
<path d="M439.578 351.505L439.578 356.314L431.481 356.314L431.481 384.164L439.578 384.164L439.578 389L417.026 389L417.026 384.164L425.123 384.164L425.123 356.314L417.026 356.314L417.026 351.505L439.578 351.505Z" fill="white"/>
</svg>
