<svg width="72" height="72" viewBox="0 0 72 72" fill="none" xmlns="http://www.w3.org/2000/svg">
<path d="M33.8644 17.36L33.8644 3.0079L33.8644 3.0072C33.8674 2.58191 33.9956 2.16692 34.233 1.81403C34.4701 1.46156 34.8057 1.18666 35.1979 1.02357C35.5895 0.847569 36.0262 0.798213 36.4472 0.882413C36.8682 0.966602 37.2523 1.18011 37.5461 1.49311C37.5465 1.49351 37.5468 1.49391 37.5472 1.49432L70.5765 34.5236C70.5768 34.5239 70.5771 34.5242 70.5774 34.5244C70.7825 34.72 70.9458 34.9552 71.0575 35.2157C71.1693 35.4766 71.227 35.7574 71.227 36.0412C71.227 36.3251 71.1693 36.6059 71.0575 36.8668C70.9458 37.1273 70.7825 37.3625 70.5774 37.5581C70.5771 37.5583 70.5768 37.5586 70.5765 37.5589L37.5472 70.5882C37.5468 70.5886 37.5465 70.5889 37.5461 70.5893C37.2524 70.9024 36.8682 71.1159 36.4472 71.2001C36.0263 71.2843 35.5895 71.2349 35.1979 71.0589C35.1975 71.0587 35.197 71.0585 35.1965 71.0583L35.2376 70.9671C34.8629 70.8116 34.5424 70.5492 34.3159 70.2126C34.0895 69.8761 33.9673 69.4802 33.9644 69.0746L33.8644 17.36ZM33.8644 17.36L25.0179 17.36C24.4438 17.36 23.8933 17.588 23.4873 17.994C23.0814 18.3999 22.8533 18.9505 22.8533 19.5246L22.8533 52.5579C22.8533 53.132 23.0814 53.6826 23.4873 54.0885C23.8933 54.4945 24.4438 54.7225 25.0179 54.7225L33.8644 54.7225L33.8644 17.36ZM38.1936 52.5579C38.1936 51.9838 37.9656 51.4333 37.5596 51.0273C37.1537 50.6214 36.6031 50.3933 36.029 50.3933L27.1825 50.3933L27.1825 21.6892L36.029 21.6892C36.6031 21.6892 37.1537 21.4611 37.5596 21.0552C37.9656 20.6492 38.1936 20.0987 38.1936 19.5246L38.1936 8.23873L65.9961 36.0412L38.1936 63.8438L38.1936 52.5579ZM1.46509 54.0885C1.87103 54.4945 2.4216 54.7225 2.99568 54.7225C3.56976 54.7225 4.12034 54.4945 4.52627 54.0885C4.93221 53.6826 5.16027 53.132 5.16027 52.5579L5.16027 19.5246C5.16027 18.9505 4.93221 18.3999 4.52627 17.994C4.12034 17.588 3.56976 17.36 2.99568 17.36C2.4216 17.36 1.87103 17.588 1.46509 17.994C1.05916 18.3999 0.8311 18.9505 0.8311 19.5246L0.831098 52.5579C0.831098 53.132 1.05916 53.6826 1.46509 54.0885ZM12.4762 54.0885C12.8821 54.4945 13.4327 54.7225 14.0068 54.7225C14.5809 54.7225 15.1315 54.4945 15.5374 54.0885C15.9433 53.6826 16.1714 53.132 16.1714 52.5579L16.1714 19.5246C16.1714 18.9505 15.9433 18.3999 15.5374 17.994C15.1315 17.588 14.5809 17.36 14.0068 17.36C13.4327 17.36 12.8821 17.588 12.4762 17.994C12.0703 18.3999 11.8422 18.9505 11.8422 19.5246L11.8422 52.5579C11.8422 53.132 12.0703 53.6826 12.4762 54.0885Z" fill="#33C8CE" stroke="#33C8CE" stroke-width="0.2"/>
</svg>
