<svg width="40" height="40" viewBox="0 0 40 40" fill="none" xmlns="http://www.w3.org/2000/svg">
<path d="M37.1406 19.1093L22.1406 4.10925C21.9599 3.93968 21.7348 3.82474 21.4915 3.77773C21.2482 3.73073 20.9965 3.75357 20.7656 3.84363C20.5381 3.93926 20.344 4.10008 20.2078 4.30585C20.0715 4.51161 19.9992 4.7531 20 4.99988V11.2499H16.25C15.9185 11.2499 15.6005 11.3816 15.3661 11.616C15.1317 11.8504 15 12.1684 15 12.4999V27.4999C15 27.8314 15.1317 28.1493 15.3661 28.3838C15.6005 28.6182 15.9185 28.7499 16.25 28.7499H20V34.9999C19.9992 35.2467 20.0715 35.4881 20.2078 35.6939C20.344 35.8997 20.5381 36.0605 20.7656 36.1561C20.9198 36.2174 21.0841 36.2492 21.25 36.2499C21.5819 36.2485 21.9007 36.1199 22.1406 35.8905L37.1406 20.8905C37.3754 20.6535 37.507 20.3334 37.507 19.9999C37.507 19.6663 37.3754 19.3462 37.1406 19.1093ZM22.5 31.9843V27.4999C22.5 27.1684 22.3683 26.8504 22.1339 26.616C21.8995 26.3816 21.5815 26.2499 21.25 26.2499H17.5V13.7499H21.25C21.5815 13.7499 21.8995 13.6182 22.1339 13.3838C22.3683 13.1493 22.5 12.8314 22.5 12.4999V8.0155L34.4844 19.9999L22.5 31.9843ZM7.5 12.4999V27.4999C7.5 27.8314 7.3683 28.1493 7.13388 28.3838C6.89946 28.6182 6.58152 28.7499 6.25 28.7499C5.91848 28.7499 5.60054 28.6182 5.36612 28.3838C5.1317 28.1493 5 27.8314 5 27.4999V12.4999C5 12.1684 5.1317 11.8504 5.36612 11.616C5.60054 11.3816 5.91848 11.2499 6.25 11.2499C6.58152 11.2499 6.89946 11.3816 7.13388 11.616C7.3683 11.8504 7.5 12.1684 7.5 12.4999ZM12.5 12.4999V27.4999C12.5 27.8314 12.3683 28.1493 12.1339 28.3838C11.8995 28.6182 11.5815 28.7499 11.25 28.7499C10.9185 28.7499 10.6005 28.6182 10.3661 28.3838C10.1317 28.1493 10 27.8314 10 27.4999V12.4999C10 12.1684 10.1317 11.8504 10.3661 11.616C10.6005 11.3816 10.9185 11.2499 11.25 11.2499C11.5815 11.2499 11.8995 11.3816 12.1339 11.616C12.3683 11.8504 12.5 12.1684 12.5 12.4999Z" fill="#33C8CE"/>
</svg>
