<svg width="40" height="40" viewBox="0 0 89 89" fill="none" xmlns="http://www.w3.org/2000/svg">
<path d="M44.1001 11.873C32.1806 11.873 22.0779 20.2855 22.0779 31.1425V39.4008H38.5946V31.1425C38.5946 30.7378 38.8423 30.146 39.8003 29.5073C40.7555 28.8742 42.3163 28.3897 44.1001 28.3897C45.8949 28.3897 47.4502 28.877 48.4027 29.5073C49.3524 30.1405 49.6057 30.691 49.6057 31.1425C49.6057 32.7391 49.0826 33.8402 48.0559 35.101C47.0291 36.3618 45.427 37.6556 43.6707 39.1421C40.1554 42.1151 35.8418 46.2718 35.8418 53.1647V55.9175H52.3584V53.1647C52.3584 52.2288 52.6998 51.5681 53.7348 50.4945C54.7699 49.4265 56.4766 48.1547 58.2934 46.6269C61.9271 43.5713 66.1223 38.8916 66.1223 31.1425C66.1223 20.3791 56.0362 11.873 44.1001 11.873ZM44.1001 17.3786C53.4485 17.3786 60.6168 23.8889 60.6168 31.1425C60.6168 37.0472 57.9301 39.6761 54.6818 42.4124C53.0577 43.7778 51.3234 45.1101 49.7763 46.7122C48.8211 47.7032 48.0834 48.9915 47.5411 50.412H42.2062C43.0733 47.6316 44.7443 45.5037 47.2823 43.3566C48.967 41.9334 50.8059 40.4496 52.3584 38.5392C53.911 36.6315 55.1112 34.1183 55.1112 31.1425C55.1112 28.4998 53.5366 26.2976 51.4968 24.9487C49.4625 23.5999 46.8694 22.8842 44.1001 22.8842C41.3198 22.8842 38.7322 23.5944 36.7006 24.9487C34.6718 26.3031 33.089 28.5053 33.089 31.1425V33.8953H27.5834V31.1425C27.5834 23.754 34.7324 17.3786 44.1001 17.3786ZM35.8418 61.4231V77.9397H52.3584V61.4231H35.8418ZM41.3473 66.9286H46.8529V72.4342H41.3473V66.9286Z" fill="#33C8CE"/>
</svg>
