<svg width="40" height="40" viewBox="0 0 40 40" fill="none" xmlns="http://www.w3.org/2000/svg">
<path d="M15.6665 27.5L19.9998 23.1667L24.3332 27.5L26.6665 25.1667L22.3332 20.8333L26.6665 16.5L24.3332 14.1667L19.9998 18.5L15.6665 14.1667L13.3332 16.5L17.6665 20.8333L13.3332 25.1667L15.6665 27.5ZM11.6665 35C10.7498 35 9.96484 34.6733 9.3115 34.02C8.65817 33.3667 8.33206 32.5822 8.33317 31.6667V10H6.6665V6.66667H14.9998V5H24.9998V6.66667H33.3332V10H31.6665V31.6667C31.6665 32.5833 31.3398 33.3683 30.6865 34.0217C30.0332 34.675 29.2487 35.0011 28.3332 35H11.6665Z" fill="black"/>
</svg>
