<svg width="22" height="21" viewBox="0 0 22 21" fill="none" xmlns="http://www.w3.org/2000/svg">
<path d="M11 0C9.55546 0 8.12506 0.278333 6.79048 0.819108C5.4559 1.35988 4.24327 2.15251 3.22183 3.15173C1.15893 5.16975 0 7.90677 0 10.7607C0 15.5169 3.157 19.5522 7.524 20.9833C8.074 21.0694 8.25 20.7358 8.25 20.4453V18.6267C5.203 19.2724 4.554 17.1848 4.554 17.1848C4.048 15.9366 3.333 15.603 3.333 15.603C2.332 14.9358 3.41 14.9573 3.41 14.9573C4.51 15.0327 5.093 16.0657 5.093 16.0657C6.05 17.7013 7.667 17.2171 8.294 16.9588C8.393 16.2594 8.679 15.7859 8.987 15.5169C6.545 15.2479 3.982 14.3225 3.982 10.2226C3.982 9.02821 4.4 8.07051 5.115 7.3065C5.005 7.03749 4.62 5.91838 5.225 4.46568C5.225 4.46568 6.149 4.17515 8.25 5.56327C9.119 5.32654 10.065 5.20817 11 5.20817C11.935 5.20817 12.881 5.32654 13.75 5.56327C15.851 4.17515 16.775 4.46568 16.775 4.46568C17.38 5.91838 16.995 7.03749 16.885 7.3065C17.6 8.07051 18.018 9.02821 18.018 10.2226C18.018 14.3332 15.444 15.2371 12.991 15.5061C13.387 15.8397 13.75 16.4961 13.75 17.4969V20.4453C13.75 20.7358 13.926 21.0802 14.487 20.9833C18.854 19.5414 22 15.5169 22 10.7607C22 9.34757 21.7155 7.94829 21.1627 6.64275C20.6099 5.3372 19.7996 4.15095 18.7782 3.15173C17.7567 2.15251 16.5441 1.35988 15.2095 0.819108C13.8749 0.278333 12.4445 0 11 0Z" fill="black"/>
</svg>
