<svg width="40" height="40" viewBox="0 0 40 40" fill="none" xmlns="http://www.w3.org/2000/svg">
<g clip-path="url(#clip0_627_52)">
<path d="M39.375 0.245536C39.8661 0.602679 40.067 1.07887 39.9777 1.67411L34.2634 35.9598C34.189 36.3914 33.9509 36.7262 33.5491 36.9643C33.3408 37.0833 33.1102 37.1429 32.8572 37.1429C32.6935 37.1429 32.5149 37.1057 32.3215 37.0312L22.2099 32.9018L16.8081 39.4866C16.5402 39.8289 16.1756 40 15.7143 40C15.5209 40 15.3572 39.9702 15.2233 39.9107C14.9405 39.8066 14.7136 39.6317 14.5424 39.3862C14.3713 39.1406 14.2858 38.869 14.2858 38.5714V30.7812L33.5715 7.14286L9.70986 27.7902L0.892896 24.1741C0.342301 23.9658 0.0446816 23.5565 3.87526e-05 22.9464C-0.0297232 22.3512 0.208372 21.9122 0.714324 21.6295L37.8572 0.200893C38.0804 0.0669643 38.3185 0 38.5715 0C38.8691 0 39.1369 0.0818452 39.375 0.245536Z" fill="currentColor"/>
</g>
<defs>
<clipPath id="clip0_627_52">
<rect width="40" height="40" fill="white"/>
</clipPath>
</defs>
</svg>
