<svg width="40" height="40" viewBox="0 0 40 40" fill="none" xmlns="http://www.w3.org/2000/svg">
<g clip-path="url(#clip0_526_22)">
<path d="M38.75 18.75H34.9437C34.3425 11.4638 28.5356 5.6625 21.25 5.06V1.25C21.25 0.56 20.69 0 20 0C19.31 0 18.75 0.56 18.75 1.25V5.06C11.465 5.6625 5.6575 11.4638 5.05562 18.75H1.25C0.56 18.75 0 19.31 0 20C0 20.69 0.56 21.25 1.25 21.25H5.05562C5.6575 28.5356 11.465 34.3375 18.75 34.94V38.75C18.75 39.44 19.31 40 20 40C20.69 40 21.25 39.44 21.25 38.75V34.94C28.5356 34.3375 34.3425 28.5356 34.9437 21.25H38.75C39.44 21.25 40 20.69 40 20C40 19.31 39.44 18.75 38.75 18.75ZM18.75 7.56187V18.75H7.56063C8.14688 12.8438 12.8438 8.14813 18.75 7.56187ZM7.56063 21.25H18.75V32.4381C12.8438 31.8519 8.14688 27.1562 7.56063 21.25ZM21.25 32.4381V21.25H32.4394C31.8531 27.1562 27.1562 31.8519 21.25 32.4381ZM21.25 18.75V7.56187C27.1562 8.14813 31.8531 12.8438 32.4394 18.75H21.25Z" fill="#33C8CE"/>
</g>
<defs>
<clipPath id="clip0_526_22">
<rect width="40" height="40" fill="white"/>
</clipPath>
</defs>
</svg>
