<svg width="44" height="47" viewBox="0 0 44 47" fill="none" xmlns="http://www.w3.org/2000/svg">
<rect x="0.666992" width="42.6667" height="46.2222" fill="white"/>
<path fill-rule="evenodd" clip-rule="evenodd" d="M16.0739 10.5186C16.7539 10.5186 17.5598 10.3704 18.5191 10.1949L18.7065 10.1601C19.7147 9.97561 20.8539 9.77783 21.9998 9.77783C23.185 9.77783 24.348 9.97487 25.3635 10.1601L25.6406 10.2112C26.5643 10.3808 27.3161 10.5186 27.9258 10.5186C28.1222 10.5186 28.3106 10.5966 28.4495 10.7355C28.5885 10.8744 28.6665 11.0629 28.6665 11.2593V18.6667C28.6665 20.4348 27.9641 22.1305 26.7139 23.3808C25.4636 24.631 23.7679 25.3334 21.9998 25.3334C20.2317 25.3334 18.536 24.631 17.2858 23.3808C16.0355 22.1305 15.3332 20.4348 15.3332 18.6667V11.2593C15.3332 11.0629 15.4112 10.8744 15.5501 10.7355C15.689 10.5966 15.8775 10.5186 16.0739 10.5186ZM21.9998 23.8519C23.375 23.8519 24.6939 23.3056 25.6663 22.3332C26.6387 21.3608 27.185 20.0419 27.185 18.6667V17.0645C26.6228 17.0119 26.0161 16.9126 25.4102 16.8126L25.1117 16.7638C24.0969 16.6001 23.0458 16.4445 21.9998 16.4445C20.9961 16.4445 19.9732 16.5993 18.9584 16.7638L18.7302 16.8008C18.085 16.9067 17.4302 17.0141 16.8147 17.0675V18.6667C16.8147 20.0419 17.3609 21.3608 18.3334 22.3332C19.3058 23.3056 20.6246 23.8519 21.9998 23.8519ZM25.4102 14.3082C26.0169 14.4082 26.6228 14.5075 27.185 14.5601V15.5756C26.7272 15.5267 26.2102 15.4423 25.628 15.3475L25.3495 15.3015C24.3347 15.1371 23.1776 14.963 21.9998 14.963C20.8621 14.963 19.7295 15.1378 18.7206 15.3015L18.5302 15.3326C17.8969 15.4363 17.3272 15.5289 16.8147 15.5801V14.563C17.4302 14.5097 18.085 14.4023 18.7302 14.2964L18.9584 14.2593C19.9732 14.0949 20.9961 13.9401 21.9998 13.9401C23.0458 13.9401 24.0976 14.0956 25.1117 14.2601L25.4102 14.3082ZM21.6072 26.8186C27.2421 26.7186 35.3332 28.7719 35.3332 32.0297V36.4445H8.6665V32.0297C8.6665 28.7719 16.265 26.9126 21.6072 26.8186ZM32.3332 30.5186C31.7354 30.183 30.9872 29.8608 30.1147 29.5704C27.5561 28.7186 24.2924 28.2526 21.6332 28.2993C19.0902 28.3445 16.0124 28.8134 13.6161 29.6386C12.825 29.9112 12.148 30.2089 11.6035 30.5186H32.3332ZM33.8517 33.4815V34.963H10.148V33.4815H33.8517Z" fill="black"/>
</svg>
