<svg width="268" height="119" viewBox="0 0 268 119" fill="none" xmlns="http://www.w3.org/2000/svg">
<path d="M0 12C0 5.37259 5.37258 0 12 0H256C262.627 0 268 5.37258 268 12V77C268 83.6274 262.627 89 256 89H55.4595C53.3631 89 51.3033 89.5492 49.4852 90.5929L17.9742 108.682C9.97428 113.274 0 107.499 0 98.2747V89V12Z" fill="#D9D9D9"/>
<path d="M30.146 29.121C30.146 28.351 30.069 27.7327 29.915 27.266C29.7657 26.7993 29.5627 26.4447 29.306 26.202C29.054 25.9593 28.7717 25.796 28.459 25.712C28.151 25.628 27.836 25.586 27.514 25.586H26.625V32.768H27.521C27.857 32.768 28.1813 32.7143 28.494 32.607C28.8067 32.4997 29.0867 32.313 29.334 32.047C29.586 31.781 29.7843 31.4123 29.929 30.941C30.0737 30.465 30.146 29.8583 30.146 29.121ZM31.854 29.121C31.854 29.919 31.7677 30.6003 31.595 31.165C31.427 31.7297 31.1937 32.1987 30.895 32.572C30.601 32.9407 30.2603 33.23 29.873 33.44C29.4903 33.6453 29.0843 33.79 28.655 33.874C28.2257 33.958 27.7963 34 27.367 34H25.001V24.34H27.206C27.794 24.34 28.3633 24.403 28.914 24.529C29.4693 24.655 29.9663 24.8883 30.405 25.229C30.8483 25.5697 31.2007 26.0527 31.462 26.678C31.7233 27.3033 31.854 28.1177 31.854 29.121ZM34.9425 30.808C34.9752 31.312 35.0825 31.725 35.2645 32.047C35.4465 32.3643 35.6845 32.5977 35.9785 32.747C36.2772 32.8963 36.6039 32.971 36.9585 32.971C37.3225 32.971 37.6585 32.915 37.9665 32.803C38.2745 32.691 38.5849 32.5323 38.8975 32.327L39.5765 33.265C39.2312 33.545 38.8275 33.769 38.3655 33.937C37.9035 34.105 37.4089 34.189 36.8815 34.189C36.1162 34.189 35.4675 34.0257 34.9355 33.699C34.4082 33.3723 34.0069 32.9173 33.7315 32.334C33.4562 31.7507 33.3185 31.0763 33.3185 30.311C33.3185 29.569 33.4539 28.9063 33.7245 28.323C33.9952 27.735 34.3825 27.2707 34.8865 26.93C35.3905 26.5847 35.9925 26.412 36.6925 26.412C37.3505 26.412 37.9152 26.5613 38.3865 26.86C38.8625 27.1587 39.2289 27.5833 39.4855 28.134C39.7469 28.68 39.8775 29.338 39.8775 30.108C39.8775 30.234 39.8729 30.36 39.8635 30.486C39.8589 30.6073 39.8519 30.7147 39.8425 30.808H34.9425ZM36.7065 27.574C36.2165 27.574 35.8105 27.749 35.4885 28.099C35.1712 28.449 34.9869 28.995 34.9355 29.737H38.3585C38.3445 29.0417 38.1952 28.5073 37.9105 28.134C37.6305 27.7607 37.2292 27.574 36.7065 27.574ZM45.5981 32.901C45.9434 32.901 46.2654 32.8427 46.5641 32.726C46.8627 32.6047 47.1474 32.4483 47.4181 32.257L48.1461 33.265C47.8241 33.5403 47.4321 33.7643 46.9701 33.937C46.5127 34.105 46.0391 34.189 45.5491 34.189C44.7931 34.189 44.1467 34.0303 43.6101 33.713C43.0734 33.391 42.6627 32.9407 42.3781 32.362C42.0934 31.7833 41.9511 31.109 41.9511 30.339C41.9511 29.5877 42.0934 28.918 42.3781 28.33C42.6674 27.7373 43.0827 27.2707 43.6241 26.93C44.1654 26.5847 44.8164 26.412 45.5771 26.412C46.0811 26.412 46.5454 26.4867 46.9701 26.636C47.3947 26.7853 47.7844 27.007 48.1391 27.301L47.4181 28.288C47.1287 28.0873 46.8324 27.9357 46.5291 27.833C46.2304 27.7257 45.9224 27.672 45.6051 27.672C45.0217 27.672 44.5434 27.8867 44.1701 28.316C43.8014 28.7453 43.6171 29.4197 43.6171 30.339C43.6171 30.955 43.7011 31.452 43.8691 31.83C44.0417 32.2033 44.2774 32.4763 44.5761 32.649C44.8747 32.817 45.2154 32.901 45.5981 32.901ZM54.4686 26.608V32.852H56.4776V34H50.6886V32.852H52.9006V27.756H50.7586V26.608H54.4686ZM53.3766 22.989C53.6846 22.989 53.9319 23.0823 54.1186 23.269C54.3099 23.4557 54.4056 23.689 54.4056 23.969C54.4056 24.249 54.3099 24.4847 54.1186 24.676C53.9319 24.8673 53.6846 24.963 53.3766 24.963C53.0779 24.963 52.8329 24.8673 52.6416 24.676C52.4503 24.4847 52.3546 24.249 52.3546 23.969C52.3546 23.689 52.4503 23.4557 52.6416 23.269C52.8329 23.0823 53.0779 22.989 53.3766 22.989ZM63.1641 23.465L64.7321 23.64V34H63.3531L63.2411 33.09C62.9891 33.44 62.6881 33.7107 62.3381 33.902C61.9881 34.0933 61.5961 34.189 61.1621 34.189C60.5275 34.189 60.0048 34.028 59.5941 33.706C59.1835 33.3793 58.8778 32.9243 58.6771 32.341C58.4811 31.753 58.3831 31.074 58.3831 30.304C58.3831 29.5527 58.4998 28.8853 58.7331 28.302C58.9665 27.714 59.3001 27.252 59.7341 26.916C60.1681 26.58 60.6908 26.412 61.3021 26.412C61.6895 26.412 62.0371 26.482 62.3451 26.622C62.6531 26.7573 62.9261 26.9557 63.1641 27.217V23.465ZM61.7151 27.616C61.1878 27.616 60.7771 27.8353 60.4831 28.274C60.1891 28.708 60.0421 29.3847 60.0421 30.304C60.0421 30.934 60.1028 31.4473 60.2241 31.844C60.3455 32.236 60.5205 32.5253 60.7491 32.712C60.9778 32.894 61.2531 32.985 61.5751 32.985C61.9298 32.985 62.2378 32.8823 62.4991 32.677C62.7605 32.4717 62.9821 32.2243 63.1641 31.935V28.435C62.9821 28.1737 62.7698 27.973 62.5271 27.833C62.2845 27.6883 62.0138 27.616 61.7151 27.616ZM72.8677 32.187C72.8677 32.4763 72.912 32.6887 73.0007 32.824C73.0893 32.9547 73.2317 33.0527 73.4277 33.118L73.0777 34.182C72.7137 34.14 72.401 34.0397 72.1397 33.881C71.8783 33.7223 71.68 33.482 71.5447 33.16C71.274 33.5007 70.931 33.7573 70.5157 33.93C70.1003 34.1027 69.657 34.189 69.1857 34.189C68.439 34.189 67.8463 33.979 67.4077 33.559C66.9737 33.1343 66.7567 32.579 66.7567 31.893C66.7567 31.1137 67.06 30.514 67.6667 30.094C68.2733 29.674 69.1413 29.464 70.2707 29.464H71.3277V28.981C71.3277 28.505 71.183 28.162 70.8937 27.952C70.609 27.742 70.2053 27.637 69.6827 27.637C69.44 27.637 69.146 27.6697 68.8007 27.735C68.4553 27.7957 68.0937 27.8913 67.7157 28.022L67.3307 26.916C67.7927 26.7433 68.2453 26.6173 68.6887 26.538C69.132 26.454 69.5427 26.412 69.9207 26.412C70.91 26.412 71.6473 26.6313 72.1327 27.07C72.6227 27.5087 72.8677 28.1153 72.8677 28.89V32.187ZM69.6617 33.034C69.979 33.034 70.2893 32.95 70.5927 32.782C70.896 32.614 71.141 32.3783 71.3277 32.075V30.444H70.4597C69.7223 30.444 69.195 30.5677 68.8777 30.815C68.5603 31.0577 68.4017 31.3937 68.4017 31.823C68.4017 32.215 68.5067 32.516 68.7167 32.726C68.9313 32.9313 69.2463 33.034 69.6617 33.034ZM75.6132 34V26.608H76.9642L77.0832 27.567C77.3912 27.189 77.7552 26.902 78.1752 26.706C78.5952 26.51 79.0269 26.412 79.4702 26.412C80.1609 26.412 80.6765 26.6057 81.0172 26.993C81.3625 27.3757 81.5352 27.9147 81.5352 28.61V34H79.9672V29.387C79.9672 28.9577 79.9415 28.6123 79.8902 28.351C79.8389 28.0897 79.7362 27.9007 79.5822 27.784C79.4329 27.6673 79.2089 27.609 78.9102 27.609C78.6722 27.609 78.4459 27.6603 78.2312 27.763C78.0165 27.8657 77.8205 28.001 77.6432 28.169C77.4659 28.3323 77.3119 28.5073 77.1812 28.694V34H75.6132ZM93.7043 30.808C93.7369 31.312 93.8443 31.725 94.0263 32.047C94.2083 32.3643 94.4463 32.5977 94.7403 32.747C95.0389 32.8963 95.3656 32.971 95.7203 32.971C96.0843 32.971 96.4203 32.915 96.7283 32.803C97.0363 32.691 97.3466 32.5323 97.6593 32.327L98.3383 33.265C97.9929 33.545 97.5893 33.769 97.1273 33.937C96.6653 34.105 96.1706 34.189 95.6433 34.189C94.8779 34.189 94.2293 34.0257 93.6973 33.699C93.1699 33.3723 92.7686 32.9173 92.4933 32.334C92.2179 31.7507 92.0802 31.0763 92.0802 30.311C92.0802 29.569 92.2156 28.9063 92.4863 28.323C92.7569 27.735 93.1443 27.2707 93.6483 26.93C94.1523 26.5847 94.7543 26.412 95.4543 26.412C96.1123 26.412 96.6769 26.5613 97.1483 26.86C97.6243 27.1587 97.9906 27.5833 98.2473 28.134C98.5086 28.68 98.6393 29.338 98.6393 30.108C98.6393 30.234 98.6346 30.36 98.6253 30.486C98.6206 30.6073 98.6136 30.7147 98.6043 30.808H93.7043ZM95.4683 27.574C94.9783 27.574 94.5723 27.749 94.2503 28.099C93.9329 28.449 93.7486 28.995 93.6973 29.737H97.1203C97.1063 29.0417 96.9569 28.5073 96.6723 28.134C96.3923 27.7607 95.9909 27.574 95.4683 27.574ZM100.797 34V26.608H102.148L102.267 27.567C102.575 27.189 102.939 26.902 103.359 26.706C103.779 26.51 104.21 26.412 104.654 26.412C105.344 26.412 105.86 26.6057 106.201 26.993C106.546 27.3757 106.719 27.9147 106.719 28.61V34H105.151V29.387C105.151 28.9577 105.125 28.6123 105.074 28.351C105.022 28.0897 104.92 27.9007 104.766 27.784C104.616 27.6673 104.392 27.609 104.094 27.609C103.856 27.609 103.629 27.6603 103.415 27.763C103.2 27.8657 103.004 28.001 102.827 28.169C102.649 28.3323 102.495 28.5073 102.365 28.694V34H100.797ZM123.809 25.67L124.229 26.972C123.935 27.07 123.611 27.1353 123.256 27.168C122.906 27.2007 122.514 27.217 122.08 27.217C122.523 27.413 122.857 27.665 123.081 27.973C123.305 28.2763 123.417 28.6497 123.417 29.093C123.417 29.5737 123.3 30.003 123.067 30.381C122.834 30.759 122.5 31.0553 122.066 31.27C121.632 31.4847 121.112 31.592 120.505 31.592C120.29 31.592 120.104 31.5827 119.945 31.564C119.791 31.5453 119.639 31.515 119.49 31.473C119.397 31.5383 119.317 31.627 119.252 31.739C119.191 31.8463 119.161 31.9607 119.161 32.082C119.161 32.2313 119.222 32.362 119.343 32.474C119.469 32.5813 119.716 32.635 120.085 32.635H121.373C121.9 32.635 122.365 32.726 122.766 32.908C123.172 33.0853 123.489 33.3303 123.718 33.643C123.951 33.951 124.068 34.301 124.068 34.693C124.068 35.4303 123.751 36.002 123.116 36.408C122.481 36.814 121.567 37.017 120.372 37.017C119.527 37.017 118.865 36.9307 118.384 36.758C117.903 36.5853 117.565 36.3287 117.369 35.988C117.173 35.6473 117.075 35.2297 117.075 34.735H118.482C118.482 34.9917 118.531 35.204 118.629 35.372C118.732 35.54 118.921 35.666 119.196 35.75C119.471 35.834 119.868 35.876 120.386 35.876C120.904 35.876 121.315 35.8317 121.618 35.743C121.926 35.659 122.148 35.5353 122.283 35.372C122.423 35.2133 122.493 35.022 122.493 34.798C122.493 34.4993 122.362 34.2683 122.101 34.105C121.84 33.9417 121.49 33.86 121.051 33.86H119.784C119.084 33.86 118.571 33.7177 118.244 33.433C117.922 33.1483 117.761 32.817 117.761 32.439C117.761 32.187 117.831 31.9443 117.971 31.711C118.116 31.4777 118.321 31.2747 118.587 31.102C118.144 30.8687 117.819 30.5863 117.614 30.255C117.413 29.919 117.313 29.513 117.313 29.037C117.313 28.5143 117.444 28.057 117.705 27.665C117.966 27.273 118.328 26.9673 118.79 26.748C119.257 26.5287 119.793 26.419 120.4 26.419C120.993 26.419 121.487 26.3887 121.884 26.328C122.281 26.2627 122.626 26.1717 122.92 26.055C123.219 25.9383 123.515 25.81 123.809 25.67ZM120.414 27.497C119.915 27.497 119.539 27.6393 119.287 27.924C119.035 28.204 118.909 28.5703 118.909 29.023C118.909 29.4897 119.037 29.8653 119.294 30.15C119.555 30.43 119.936 30.57 120.435 30.57C120.897 30.57 121.249 30.4347 121.492 30.164C121.739 29.8933 121.863 29.5083 121.863 29.009C121.863 28.505 121.742 28.127 121.499 27.875C121.256 27.623 120.895 27.497 120.414 27.497ZM126.05 34V32.88H127.135V27.721H126.05V26.608H128.332L128.619 28.323C128.895 27.7023 129.235 27.231 129.641 26.909C130.052 26.5823 130.579 26.419 131.223 26.419C131.443 26.419 131.639 26.4377 131.811 26.475C131.989 26.5077 132.164 26.552 132.336 26.608L131.867 27.952C131.718 27.91 131.578 27.8797 131.447 27.861C131.317 27.8377 131.172 27.826 131.013 27.826C130.477 27.826 130.012 28.0267 129.62 28.428C129.233 28.8293 128.927 29.3987 128.703 30.136V32.88H130.194V34H126.05ZM130.95 29.331V27.511L131.146 26.608H132.336L132.07 29.331H130.95ZM135.943 26.608V31.774C135.943 32.2127 136.029 32.5253 136.202 32.712C136.379 32.8987 136.645 32.992 137 32.992C137.336 32.992 137.66 32.8917 137.973 32.691C138.286 32.4903 138.533 32.2453 138.715 31.956V26.608H140.283V34H138.932L138.834 33.055C138.559 33.4237 138.211 33.706 137.791 33.902C137.371 34.0933 136.942 34.189 136.503 34.189C135.789 34.189 135.255 33.993 134.9 33.601C134.55 33.2043 134.375 32.6607 134.375 31.97V26.608H135.943ZM146.374 26.412C147.028 26.412 147.55 26.573 147.942 26.895C148.334 27.2123 148.619 27.6627 148.796 28.246C148.974 28.8247 149.062 29.506 149.062 30.29C149.062 31.0413 148.955 31.711 148.74 32.299C148.526 32.887 148.206 33.349 147.781 33.685C147.361 34.021 146.839 34.189 146.213 34.189C145.439 34.189 144.813 33.916 144.337 33.37V36.842L142.769 37.017V26.608H144.134L144.232 27.56C144.512 27.1773 144.837 26.8903 145.205 26.699C145.579 26.5077 145.968 26.412 146.374 26.412ZM145.94 27.623C145.59 27.623 145.282 27.728 145.016 27.938C144.75 28.148 144.524 28.3953 144.337 28.68V32.138C144.515 32.404 144.725 32.6093 144.967 32.754C145.215 32.894 145.492 32.964 145.8 32.964C146.328 32.964 146.729 32.7517 147.004 32.327C147.28 31.9023 147.417 31.2257 147.417 30.297C147.417 29.667 147.361 29.156 147.249 28.764C147.142 28.3673 146.979 28.078 146.759 27.896C146.545 27.714 146.272 27.623 145.94 27.623ZM154.125 26.412C154.848 26.412 155.457 26.573 155.952 26.895C156.447 27.217 156.82 27.6673 157.072 28.246C157.329 28.8247 157.457 29.506 157.457 30.29C157.457 31.0693 157.326 31.753 157.065 32.341C156.808 32.9243 156.43 33.3793 155.931 33.706C155.436 34.028 154.832 34.189 154.118 34.189C153.404 34.189 152.797 34.0327 152.298 33.72C151.803 33.4027 151.425 32.9523 151.164 32.369C150.907 31.7857 150.779 31.0973 150.779 30.304C150.779 29.534 150.907 28.8573 151.164 28.274C151.425 27.6907 151.806 27.2357 152.305 26.909C152.804 26.5777 153.411 26.412 154.125 26.412ZM154.125 27.63C153.56 27.63 153.136 27.847 152.851 28.281C152.566 28.7103 152.424 29.3847 152.424 30.304C152.424 31.2187 152.564 31.893 152.844 32.327C153.129 32.761 153.553 32.978 154.118 32.978C154.683 32.978 155.105 32.761 155.385 32.327C155.67 31.893 155.812 31.214 155.812 30.29C155.812 29.38 155.672 28.7103 155.392 28.281C155.112 27.847 154.69 27.63 154.125 27.63ZM169.558 32.831C169.558 32.579 169.618 32.3527 169.74 32.152C169.856 31.9467 170.017 31.7833 170.223 31.662C170.428 31.5407 170.657 31.48 170.909 31.48C171.165 31.48 171.396 31.5407 171.602 31.662C171.807 31.7833 171.97 31.9467 172.092 32.152C172.208 32.3527 172.267 32.579 172.267 32.831C172.267 33.0783 172.208 33.307 172.092 33.517C171.97 33.7223 171.807 33.8857 171.602 34.007C171.396 34.1283 171.165 34.189 170.909 34.189C170.657 34.189 170.428 34.1283 170.223 34.007C170.017 33.8857 169.856 33.7223 169.74 33.517C169.618 33.307 169.558 33.0783 169.558 32.831ZM175.158 32.831C175.158 32.579 175.216 32.3527 175.333 32.152C175.454 31.9467 175.617 31.7833 175.823 31.662C176.028 31.5407 176.257 31.48 176.509 31.48C176.765 31.48 176.996 31.5407 177.202 31.662C177.407 31.7833 177.568 31.9467 177.685 32.152C177.806 32.3527 177.867 32.579 177.867 32.831C177.867 33.0783 177.806 33.307 177.685 33.517C177.568 33.7223 177.407 33.8857 177.202 34.007C176.996 34.1283 176.765 34.189 176.509 34.189C176.257 34.189 176.028 34.1283 175.823 34.007C175.617 33.8857 175.454 33.7223 175.333 33.517C175.216 33.307 175.158 33.0783 175.158 32.831ZM163.958 32.831C163.958 32.579 164.018 32.3527 164.14 32.152C164.256 31.9467 164.417 31.7833 164.623 31.662C164.828 31.5407 165.057 31.48 165.309 31.48C165.565 31.48 165.796 31.5407 166.002 31.662C166.207 31.7833 166.37 31.9467 166.492 32.152C166.608 32.3527 166.667 32.579 166.667 32.831C166.667 33.0783 166.608 33.307 166.492 33.517C166.37 33.7223 166.207 33.8857 166.002 34.007C165.796 34.1283 165.565 34.189 165.309 34.189C165.057 34.189 164.828 34.1283 164.623 34.007C164.417 33.8857 164.256 33.7223 164.14 33.517C164.018 33.307 163.958 33.0783 163.958 32.831Z" fill="black"/>
</svg>
